# xmcd CD database file
#
# Track frame offsets:
#	150
#	19655
#	51843
#	70498
#	84605
#	105165
#	128023
#	152178
#	175428
#	200925
#	234600
#	256710
#	288160
#
# Disc length: 4008 seconds
#
# Revision: 2
# Processed by: cddbd v1.5.2PL0 Copyright (c) Steve Scherf et al.
# Submitted via: CDex 1.51
#
DISCID=b20fa60d
DTITLE=Various Artist - Memories Of Bill Evans -A Tribute To Bill Evans-
DYEAR=1999
DGENRE=Jazz
TTITLE0=(Shionoya Trio) - Five
TTITLE1=(Yosuke Yamashita With Saito-Neko Quartet) - Waltz For Debby
TTITLE2=(Yosuke Yamashita) - Alice In Wonderland
TTITLE3=(Masahiro Sayama Trio) - My Funny Valentine
TTITLE4=(Masahiro Sayama Trio) - A Sleepin' Bee
TTITLE5=(Msanori Sasaji Ensemble) - Gloria's Step
TTITLE6=(Masanori Sasaji Ensemble) - Bill Bop
TTITLE7=(Yoshiko Kishino) - Peace Piece
TTITLE8=(Mikio Masuda Trio) - Nardis
TTITLE9=(Mikio Masuda Trio) - Polka Dots And Moonbeams
TTITLE10=(Hiroko Kokubu Group) - My Romance
TTITLE11=(Hiroko Kokubu Group) - Israe
TTITLE12=(Satoru Shionoya) - Blue In Green
EXTD=YEAR: 1999
EXTT0=
EXTT1=
EXTT2=
EXTT3=
EXTT4=
EXTT5=
EXTT6=
EXTT7=
EXTT8=
EXTT9=
EXTT10=
EXTT11=
EXTT12=
PLAYORDER=
